<svg width="77" height="98" fill="none" xmlns="http://www.w3.org/2000/svg"><path fill-rule="evenodd" clip-rule="evenodd" d="M56.42 95.552c.04-.697.49-1.993 2.964-3.19 1.307-.632 2.93-.523 4.346-.371 1.046.111 2.231.315 3.1.972.33.25.619 1.445.746 2.62l-11.155-.031zm-17.834.588L28.16 90.085c1.36-2.241 3.62-2.374 4.236-2.366l8.051 4.75a23.35 23.35 0 01-1.862 3.67zm-9.973-41.686c-.016.004-.026.015-.04.02-.015.004-.03.002-.044.007-1.597.615-2.618-.56-3.193-1.653-.29-.552-.502-1.405-.65-2.607a.854.854 0 01.768-.961l1.568-.151.004-.001c2.897-.281 5.202-2.43 6.886-4 3.534-3.294 7.316-6.664 11.57-9.126-1.451 3.337-1.64 6.931-1.824 10.43l-.007.134c-4.154 3.585-9.747 6.535-15.038 7.908zm-5.632 1.43l.588-1.17a.77.77 0 00-.345-1.034.776.776 0 00-1.036.344l-.665 1.321a2.659 2.659 0 01-.68-.769c-.37-.642-.629-1.722-.138-2.655.401-.767 1.244-1.29 2.447-1.544l.001.03c.173 1.41.433 2.407.815 3.136.336.637.729 1.164 1.165 1.576-.708.526-1.447.788-2.152.765zM67.14 65.85a.771.771 0 00-.755-.788c-.43.012-.78.328-.79.752-.172 7.475-.106 20.359 2.131 25.5l-.353.157c-1.09-.672-2.356-.893-3.477-1.013-1.751-.189-3.59-.255-5.186.517-.32.155-.612.314-.883.474-2.665-5.844-3.986-11.864-4.328-16.751l-.002-.025c-.178-2.58-.092-4.85.22-6.596a.771.771 0 00-1.52-.269c-.314 1.755-.415 4.008-.26 6.567-4.603 4.499-8.844 11.545-10.915 16.642l-7.508-4.43c2.015-7.856 7.76-20.59 8.623-22.483 1.693.881 3.726 1.12 5.593 1.215 1.913.097 3.714.145 5.398.145 6.063 0 10.633-.626 13.621-1.87a.77.77 0 10-.596-1.423c-3.553 1.481-9.897 2.038-18.345 1.609-2.339-.118-4.709-.436-6.213-1.948-.032-.032-.072-.047-.108-.073-.224-1.37.503-2.72 1.274-4.15.221-.412.443-.823.64-1.234 1.374-2.846 1.596-6.033 1.775-9.402l.001-.005.025-.477c.215-4.116.438-8.372 2.818-11.969l.004-.01c.017-.027.024-.058.038-.087a.743.743 0 00.05-.131c.006-.021.02-.04.023-.062.005-.027-.003-.057 0-.086a.76.76 0 00-.003-.14c-.003-.025 0-.05-.005-.074v-.012l-.805-3.37a.773.773 0 00-1.503.357l.666 2.787c-5.136 2.582-9.548 6.485-13.627 10.288-1.976 1.842-3.789 3.383-5.988 3.593l-.003.001h-.003c-.31.032-.93.09-1.555.15a2.379 2.379 0 00-1.641.882c-.037.045-.062.097-.095.145-2.577.326-3.733 1.494-4.236 2.452-.652 1.242-.588 2.827.168 4.137.334.58.785 1.058 1.314 1.41L1.928 94.367a.772.772 0 00-.91.442c-.082.19-.203.377-.32.558-.254.393-.57.882-.277 1.418.303.555 1.002.555 1.265.555a.77.77 0 00.69-.425l19.872-39.572c.1.02.198.043.3.057.174.022.347.033.522.033 1.178 0 2.372-.504 3.444-1.448.373.133.76.208 1.16.208.426 0 .866-.087 1.31-.246.006 0 .012 0 .018-.002 5.042-1.31 10.344-3.993 14.525-7.3-.179 2.558-.504 4.962-1.518 7.062-.189.392-.4.782-.61 1.175-.858 1.592-1.745 3.24-1.437 5.126a.76.76 0 00.34.509.75.75 0 00.195.401c.11.11.232.198.348.298h-.001c-.274.597-6.616 14.378-8.822 22.966-1.643.088-4.257.951-5.591 3.88a.769.769 0 00.314.983l11.687 6.79a.776.776 0 001.006-.203c.06-.079 1.468-1.962 2.71-5.266 1.705-4.536 5.663-11.379 9.96-15.962.518 4.829 1.902 10.489 4.44 15.963-2.313 2.038-1.568 4.118-1.526 4.225.113.3.4.497.719.498l12.666.035h.002a.773.773 0 00.772-.8c-.026-.644-.15-2.43-.722-3.65l.63-.278a.771.771 0 00.355-1.09c-1.743-3.002-2.605-12.518-2.305-25.456zM50.475 8.705c.246-.106.49-.222.735-.34.748-.354 1.453-.688 2.155-.688h.002c.972.001 1.995.71 2.606 1.806.612 1.098.819 2.423 1.019 3.704a.75.75 0 00.193.385c-.1.015-.2.052-.299.077a.76.76 0 00-.222-.35.765.765 0 00-.609-.171c-2.777.409-5.604.85-8.406 1.308h-.006c-.045.008-.082.034-.123.048a3.02 3.02 0 00-.934-.173 10.088 10.088 0 00-2.838.343h-.012c-.161.007-.562-.008-.963-.02a92.283 92.283 0 00-.55-.016c-.22-.809-.416-1.632-.472-2.445-.05-.732.002-1.791.534-2.674a.757.757 0 00.02-.728c2.592 1.034 5.603 1.036 8.17-.066zm-4.912 10.982c-.072-.027-.128-.088-.19-.135a5.528 5.528 0 001.165-.143l.032-.008c-.288.277-.702.4-1.007.286zM40.593 7.84c.095.074.173.134.218.177.024.023.054.032.08.051.026.02.043.048.072.065.148.085.305.15.457.229a.77.77 0 00-.459.343c-.585.971-.845 2.206-.75 3.573.078 1.16.385 2.259.682 3.32 0 .005.004.007.005.01a.74.74 0 00-.24.375l-1.234 4.932a.816.816 0 00-.022.145c-.067 1.24 1.703 1.84 2.443 2 .266.422.519.858.775 1.32.233.42.468.842.72 1.253.832 1.353 1.685 2.244 2.682 2.802a4.544 4.544 0 002.21.587c.703 0 1.38-.177 1.945-.533a.771.771 0 10-.825-1.302c-.676.427-1.71.388-2.574-.095a4.578 4.578 0 01-1.11-.898c.413-.009.824.011 1.234.077a.771.771 0 10.244-1.521 8.456 8.456 0 00-2.541-.013c-.22-.363-.427-.731-.633-1.103-.346-.624-.704-1.27-1.13-1.88a.762.762 0 00-.92-.261c-.36-.111-.76-.299-.939-.446l1.173-4.692c.017-.067.01-.132.01-.199.168.005.364.01.561.018h.006l.021.146c.014.079.03.17.03.285.005.637.166 1.237.308 1.766.196.734.606 2.261 1.927 2.757.254.095.523.141.795.141.687 0 1.392-.294 1.907-.832.707-.738.906-1.686.947-2.351.033-.516.017-1.41-.038-2.16.006-.03.016-.059.02-.09 2.279-.37 4.569-.728 6.832-1.065.005.125.031.25.102.364a.772.772 0 001.062.252c.475-.292 1.007-.385 1.424-.254.384.121.682.49.665.82-.016.313-.27.654-.488.916a8.308 8.308 0 01-1.779 1.59.77.77 0 00.126 1.53l.044-.001c.357-.02.625-.201.753-.289a9.81 9.81 0 002.043-1.845c.372-.444.803-1.054.844-1.82.055-1.036-.678-2.033-1.74-2.37-.084-.026-.174-.03-.26-.048a.757.757 0 00.24-.665c-.21-1.35-.448-2.878-1.195-4.218-.892-1.599-2.407-2.594-3.955-2.596h-.003c-1.051 0-1.95.426-2.818.839-.228.107-.455.215-.683.313-2.566 1.104-5.653.923-8.075-.463a7.34 7.34 0 00-.237-.194c-.73-.576-1.096-.98-1.086-1.2.002-.05.087-.159.27-.279l.003-.004.006-.003c3.684-2.523 8.188-3.75 12.682-3.446 1.583.105 5.355 1.19 5.99 2.199.048.074.044.097.037.115a.75.75 0 00-.065.331c.018.398.33.7.72.721.027.003.053.014.08.013.143.029.691.401 1.554 1.788.353.567.669 1.587.811 2.295.499 2.458-.764 8.207-2.516 9.921a.768.768 0 00.542 1.319.77.77 0 00.54-.22c2.171-2.123 3.546-8.38 2.95-11.325-.164-.804-.527-2.02-1.014-2.803-.757-1.216-1.434-1.959-2.078-2.297a1.76 1.76 0 00-.252-.678C59.605 1.301 54.878.253 53.53.162c-4.836-.32-9.68.993-13.647 3.707h-.002l-.002.002-.009.004-.008.01c-.743.5-.923 1.081-.94 1.482-.046 1.118 1.07 2 1.671 2.473z" fill="#000"/><path fill-rule="evenodd" clip-rule="evenodd" d="M74.947 63.945c-.13.317-.4.632-.825.962-.9.698-2.015 1.138-3.104 1.5l-.042-.572c-.023-.335-.22-.607-.662-1.188-.107-.141-.275-.362-.357-.487.006-.401.176-.874.34-1.331.124-.344.236-.675.296-1 1.12-.33 2.407-.965 3.413-1.63.139.486.33.944.514 1.37.444 1.03.703 1.696.427 2.376zm.992-2.986c-.28-.65-.534-1.267-.567-1.877.114-.13.21-.253.267-.367.962-1.883-.42-7.611-2.327-14.905-.4-1.528-.745-2.848-.951-3.772-.462-2.06-.985-4.393-2.195-6.378-1.215-1.994-3.974-4.166-6.336-4.495a16.767 16.767 0 01-2.97-6.318l-.005-.008c-.017-.069-.053-.132-.087-.193-.015-.025-.02-.056-.038-.08-.022-.031-.06-.052-.086-.08-.044-.041-.082-.089-.133-.12l-.01-.008c-.044-.026-.093-.032-.14-.05-.044-.015-.085-.038-.132-.044-.066-.012-.13-.003-.196.003-.034.003-.066-.005-.1.002l-.008.004c-.069.017-.13.052-.192.087-.027.014-.057.021-.082.038-.024.018-.04.047-.061.067-.053.048-.105.095-.141.155l-.007.006c-1.49 2.502-4.721 4.703-7.684 5.235a.77.77 0 10.273 1.515c2.874-.516 5.857-2.336 7.764-4.622.251.764.548 1.514.897 2.24a19.3 19.3 0 01-10.509 5.52.77.77 0 10.26 1.518c4.139-.705 8.013-2.702 11.009-5.63a18.2 18.2 0 001.324 1.945c.005.006.014.008.02.015.134.16.327.269.552.28 1.837.084 4.464 2.122 5.498 3.819 1.078 1.767 1.55 3.875 2.007 5.913.213.951.561 2.282.964 3.824 1.125 4.301 3.218 12.307 2.447 13.818-.427.835-4.265 2.746-5.058 2.524-.512-.23-.706-1.86-.812-2.735a14.675 14.675 0 00-.175-1.205 91.332 91.332 0 01-.635-3.445c-.676-3.94-1.374-8.017-3.762-11.343a.772.772 0 00-1.256.896c2.181 3.039 2.85 6.937 3.495 10.707.197 1.154.402 2.346.646 3.503.063.295.106.669.154 1.07.179 1.501.403 3.37 1.711 3.957.106.048.232.076.366.095l-.094.27c-.224.622-.477 1.328-.425 2.076.023.338.22.61.665 1.194.11.143.282.37.36.492l.05.655c.034.426.258.806.615 1.04a1.388 1.388 0 001.209.163c1.277-.417 2.616-.926 3.752-1.806.647-.501 1.074-1.025 1.309-1.6.532-1.311.016-2.508-.44-3.565zM49.299 37.671a.774.774 0 00-.885.64 62.747 62.747 0 00.648 23.431.772.772 0 001.509-.327 62.091 62.091 0 01-.632-22.86.77.77 0 00-.64-.884zM60.044 57.895c.712 0 1.421-.11 2.098-.338a.77.77 0 10-.495-1.46c-2.075.702-4.554-.043-5.896-1.77a.773.773 0 00-1.083-.137.768.768 0 00-.138 1.08c1.294 1.667 3.41 2.625 5.514 2.625z" fill="#000"/></svg>