<svg width="40" height="99" fill="none" xmlns="http://www.w3.org/2000/svg"><path fill-rule="evenodd" clip-rule="evenodd" d="M37.485 60.314c.029.271-.048.343-.082.374-.342.313-1.45.26-2.198.1.026-1.196.05-2.464.072-3.773.12.003.248.009.362.009.583 0 1.058-.041 1.479-.102.086.797.226 2.075.367 3.392zm-3.462-26.217c.17.315.34.645.51 1.006 2.164 4.6 3.335 11.328 3.481 20-.275.151-1.02.422-2.715.381.082-6.287.05-13.133-.346-16.88a23.184 23.184 0 00-.93-4.507zm-.51 34.26c-1.84-.574-6.326-2.534-8.77-8.43a.742.742 0 00-.338-.364c.558-2.427.739-4.56.794-5.488.913-.37 1.65-.9 2.107-1.658 1.41-2.343 1.747-4.256 1.002-5.686-.53-1.017-1.552-1.716-3.091-2.114a57.486 57.486 0 00-.166-3.296c2.078-4.354 3.782-8.372 4.112-9.479.204-.683.42-1.827.526-2.925 1.294 1.64 3.267 4.875 3.796 9.855.733 6.911.175 25.226.028 29.585zm-1.88 23.738h-9.15c.555-3.875 1.413-12.238.342-21.98a.75.75 0 00-.818-.674c-.406.048-.696.428-.65.849 1.073 9.753.176 18.105-.367 21.805H9.571c.615-6.607.598-14.877-.041-21.498a16.15 16.15 0 002.33.168c1.408 0 2.998-.173 4.76-.616 3.953-.994 6.09-4.842 7.247-8.578 2.369 4.873 5.985 7.014 8.23 7.907a.759.759 0 00-.53.848c.864 5.528.888 13.813.067 21.77zm-8.307 5.027c.07-1.41-.227-2.565-.884-3.496l9.648.001c1.26.822 1.831 1.947 1.767 3.495H23.326zM9.492 93.627h10.82c1.17.772 1.649 1.846 1.54 3.495H9.492v-3.495zm9.021-40.58c1.234-1.587 2.782-4.284 4.316-7.249.491.036.936.093 1.348.166.093.043.193.07.3.07h.006c.014 0 .026-.006.04-.007 1.285.277 2.135.758 2.486 1.432.59 1.133-.194 2.881-.957 4.147-.92 1.53-4.045 1.79-7.539 1.442zM5.152 48.672a15.324 15.324 0 007.768-4.72c.037-.042.054-.093.08-.14a29.44 29.44 0 003.514 1.158c-1.887 2.706-4.793 4.666-7.954 5.297a.733.733 0 00-.462.314c-.916-.39-1.97-1.041-2.946-1.909zm18.573-4.633l.009.316-.157-.02.148-.296zm-7.032 8.782a44.974 44.974 0 01-6.363-1.443c3.144-1.02 5.944-3.204 7.746-6.058.997.196 2.04.336 3.115.399-1.446 2.755-2.872 5.2-3.977 6.56a4 4 0 01-.521.542zM3.243 37.787c3.686-6.806 11.304-10.82 11.38-10.86a.749.749 0 00.383-.545c1.934 1.868 4.502 3.358 7.253 3.486.247 1.754.94 6.845 1.285 11.152a157.394 157.394 0 01-1.582 3.203c-4.23-.102-8.103-1.61-10.423-2.732.125-.673.508-2.48 1.23-3.862a.78.78 0 00-.299-1.038.725.725 0 00-1.002.31c-.697 1.338-1.105 2.957-1.298 3.88-.54-.298-.856-.5-.87-.508a.72.72 0 00-.834.035l-5.462 4.23a.784.784 0 00-.15 1.07.722.722 0 001.033.157l5.068-3.924c.5.298 1.406.803 2.608 1.354-2.027 2.18-4.775 3.675-7.656 4.169-.63-.785-1.17-1.677-1.509-2.687-.734-2.182-.45-4.5.845-6.89zm9.548-16.77c-.008-.002-.83-.218-1.204-.886-.241-.43-.263-.995-.061-1.68.11-.37.305-.832.62-.923.424-.122 1.088.306 1.399.574.036.06.072.136.119.232.29.6.776 1.603 1.786 1.766.09.014.178.022.269.022.64 0 1.298-.367 2.001-1.113.45-.478.684-1.16.711-2.088.005-.17.005-.34.004-.51-.002-.373-.005-.723.066-1.029.161-.7.718-1.288 1.308-1.912.153-.162.306-.324.453-.488.94-1.051 1.381-2.165 1.274-3.163 2-.786 4.209-.912 6.286-.352l.304.084c.561.16 1.198.339 1.878.273l.008-.001c.845 2.385 1.05 5.264 1.046 5.48-.338 2.513.314 3.98.839 5.16.245.55.462 1.037.542 1.557-.218.007-.53-.028-.704-.045-.555-.058-1.185-.123-1.439.485-.267.635-.54 1.223-.83 1.764a.74.74 0 00-.458-.35l-1.993-.504a.736.736 0 00-.893.561.767.767 0 00.542.926l1.994.506c.035.009.071.01.107.014-1.28 1.828-2.989 2.874-5.892 2.976-4.325.148-8.396-3.973-9.56-6.882a.748.748 0 00-.522-.454zm-1.947-13.06c1.28-2.63 3.96-4.645 6.994-5.261 2.833-.573 5.96-.02 8.805 1.562a16.135 16.135 0 014.037 3.19.762.762 0 00-.115.343c-.014.23-.35.472-.704.508-.409.043-.864-.087-1.345-.225l-.323-.09a11.487 11.487 0 00-7.835.684.753.753 0 00-.389.427.791.791 0 00.019.587c.368.845-.526 1.942-.809 2.259-.138.153-.282.304-.426.457-.672.71-1.433 1.516-1.69 2.63-.11.484-.108.945-.105 1.391 0 .152.002.303-.003.454-.017.526-.112.875-.29 1.066-.488.516-.832.674-.988.647-.258-.041-.542-.626-.694-.94-.112-.232-.2-.415-.325-.563-.01-.012-.025-.017-.036-.029-.01-.011-.015-.026-.026-.037-.148-.14-1.49-1.353-2.842-.966-.14.04-.293.104-.45.198-1.546-2.288-1.755-5.632-.46-8.292zm17.424 20.145c-.053 1.08-.275 2.483-.515 3.287-.258.86-1.43 3.659-2.964 6.984-.352-3.51-.824-6.994-1.043-8.545 1.911-.189 3.361-.794 4.522-1.726zm7.593 6.329c-1.63-3.466-3.421-4.965-4.282-5.686a5.581 5.581 0 01-.382-.336c-.656-.892-1.22-1.477-1.52-1.76.696-.905 1.272-1.97 1.795-3.163.037.005.076.009.116.012.668.071 1.5.157 2.01-.35.242-.241.365-.577.344-.948-.052-.914-.383-1.659-.704-2.38-.489-1.1-.995-2.237-.717-4.306.055-.415-.202-3.662-1.15-6.295.368-.328.633-.776.668-1.325a.768.768 0 00-.143-.488.777.777 0 00-.07-.935 17.604 17.604 0 00-4.485-3.563C24.196 1.16 20.72.552 17.554 1.193c-3.523.714-6.524 2.985-8.029 6.074-1.62 3.326-1.3 7.415.788 10.196-.072.164-.14.34-.2.542-.326 1.108-.26 2.083.197 2.897.494.88 1.3 1.305 1.78 1.49.451 1 1.165 2.084 2.07 3.11-.066.012-.133.022-.197.055-.329.17-8.096 4.257-12.008 11.48-1.511 2.789-1.83 5.53-.951 8.145.447 1.328 1.173 2.492 2.026 3.48a.73.73 0 00.136.143c1.362 1.526 3.014 2.618 4.385 3.198 1.253.53 3.903 1.375 6.885 1.99.062.12.144.228.265.302.39.237.835.356 1.28.356.332 0 .66-.081.97-.215 1.353.194 2.714.316 3.992.316.976 0 1.898-.078 2.74-.239-.26 3.095-1.535 12.67-7.41 14.147-5.906 1.484-9.695-.354-10.85-1.053l2.526-13.039a.765.765 0 00-.578-.902.74.74 0 00-.87.6L3.875 67.817a.78.78 0 00.276.759c.099.078 1.432 1.104 3.87 1.722.7 6.877.7 15.699-.002 22.48 0 .014.005.027.004.04 0 .014-.008.027-.008.042v5.027c0 .423.331.766.738.766h25.773a.748.748 0 00.731-.655c.336-2.37-.425-4.26-2.18-5.513.678-6.477 1.01-15.615-.053-22.406a.77.77 0 00-.128-.314 9.124 9.124 0 001.207.316.724.724 0 00.584-.165.779.779 0 00.27-.563c.011-.32.115-3.136.21-7.015.314.057.733.114 1.197.114.71 0 1.49-.136 2.017-.617.313-.287.666-.813.572-1.691-.156-1.454-.308-2.85-.392-3.613.535-.257.763-.555.855-.744a.776.776 0 00.08-.356c-.123-9.068-1.345-16.134-3.635-21.001z" fill="#000"/><path fill-rule="evenodd" clip-rule="evenodd" d="M26.204 16.46l.09.002c.879 0 1.748-.23 2.52-.67a.78.78 0 00.291-1.04.724.724 0 00-1.003-.303 3.532 3.532 0 01-1.872.48c-.416-.021-.744.33-.751.754a.753.753 0 00.725.778zM27.956 17.545c-.536 0-.972.45-.972 1.008 0 .556.436 1.007.972 1.007.537 0 .971-.45.971-1.007 0-.557-.434-1.008-.97-1.008z" fill="#000"/></svg>