<svg width="41" height="95" fill="none" xmlns="http://www.w3.org/2000/svg"><path fill-rule="evenodd" clip-rule="evenodd" d="M32.151 49.19c-4.283.159-8.87-1.139-12.975-3.653.571-3.145 1.947-6.127 4.011-8.531a.783.783 0 00.113-.203c.796-.176 1.593-.34 2.39-.492 2.408-.456 4.417-.697 6.393-.4 2.262.341 4.033 1.395 5.742 3.42.006.008.016.01.022.018.007.008.01.017.017.024 1.698 1.73 1.083 4.934-.532 6.73-1.37 1.522-3.28 2.405-5.18 3.086zm1.227 3.502c-2.106 1.977-5.543 2.793-9.939 2.387a4.349 4.349 0 00-.093-1.444 124.82 124.82 0 005.186-1.632c.746-.249 1.49-.497 2.233-.739 1.42-.46 3.035-.996 4.548-1.795a6.772 6.772 0 01-1.935 3.223zm-19.1 2.107c-.36-.235-.586-.64-.523-.94.071-.349.493-.597.854-.68.388-.088.82-.073 1.278-.056.176.006.351.013.526.014.645.007 1.596-.063 2.339-.697.086-.074.169-.157.252-.239.08-.08.2-.199.242-.215.041-.003.147.028.46.249l2.074 1.468c.183.242.245.794.172 1.374-2.053.968-7.035.045-7.674-.278zm8.155-2.486l-1.898-1.343c-.315-.224-.895-.628-1.585-.48a18.122 18.122 0 01.007-3.32c2.958 1.722 6.133 2.86 9.285 3.322-.053.019-.107.036-.16.053-1.85.618-3.758 1.248-5.65 1.768zm-10.118 1.223a2.123 2.123 0 00-.037.513c-.056-.016-.11-.036-.17-.038-2.329-.02-3.842-.522-4.763-1.574-1.921-2.2-.397-6.983 1.542-9.445 2.011-2.551 3.783-3.125 7.077-4.193a80.366 80.366 0 015.074-1.457c-1.77 2.496-2.93 5.426-3.398 8.478l-.001.008a19.838 19.838 0 00-.064 5.583c-.277.131-.657.192-1.152.195a16.31 16.31 0 01-.484-.012c-.529-.02-1.078-.041-1.647.09-1.017.234-1.793.961-1.977 1.852zm-5.749.669c-.46 1.16-.903 2.322-1.345 3.477-.677.133-1.479-.19-2.067-.595-.336-.232-.52-.43-.563-.608-.034-.144.002-.371.036-.59l.519-3.272c.175-1.059.368-2.112.56-3.163.676-3.693 1.374-7.512 1.198-11.341v-.001c0-2.343 1.455-5.513 3.63-6.628.838.504 1.742.917 2.724 1.143a6.836 6.836 0 001.53.176c2.098 0 4.031-.989 4.997-2.66a5.38 5.38 0 00.64-1.804c.158.06.315.126.474.173a5.615 5.615 0 001.592.236c1.25 0 2.394-.45 3.22-1.264-.248.538-.209.994-.109 1.288.309.902 1.33 1.387 2.388 1.777.443.163.968.291 1.476.416.564.138 1.148.282 1.502.447.81.38 1.02.932 1.378 2.046.081.25.168.52.27.799-1.756-.038-3.517.232-5.19.548-3.33.63-6.66 1.482-9.979 2.558-1.716.557-3.122 1.022-4.407 1.755a7.55 7.55 0 00.101-1.51.756.756 0 00-.763-.737c-.406.015-.723.37-.708.793a6.018 6.018 0 01-.387 2.327.768.768 0 00-.027.42c-.504.452-1.003.97-1.508 1.611-2.284 2.9-4.074 8.49-1.493 11.444.155.176.323.325.494.473a.763.763 0 00-.183.266zM3.698 64.7c-.616.168-1.35-.085-1.748-.6-.665-.862-.417-2.17-.28-2.692.146-.557.363-1.098.594-1.67.151-.375.3-.764.436-1.16.646.378 1.302.596 1.928.645l.717 1.682c.168.394.294.715.259.968-.011.08-.08.163-.04.178-.394-.11-.796.138-.898.547a.778.778 0 00.243.775c-.135.616-.625 1.167-1.211 1.327zm.791-39.19c-.319-.734-.412-1.783.099-2.47.327-.44.875-.722 1.455-1.022.647-.334 1.316-.68 1.842-1.295 1.277-1.492.968-3.524.697-5.318l-.077-.513c-.342-2.394.012-6.896 1.366-8.789 1.314-1.836 5.526-4.457 8.783-4.457.07 0 .142 0 .212.003 1.096.04 2.98.763 4.803 1.462 1.45.557 2.821 1.084 3.943 1.338.868.197 1.765.437 2.376 1.009.465.435.726 1.265.378 1.726-.165.22-.465.38-.809.55-.29.144-.588.3-.895.46-2.515 1.303-5.645 2.926-10.774 2.084-.4-.067-.778.22-.842.637-.063.417.211.81.612.876.783.128 1.523.203 2.226.233-.774 1.753-1.762 1.91-2.718 2.061-.75.12-1.78.283-2.1 1.505-.68 2.592-.484 4.521.722 7.12 1.39 2.995 1.625 5.107.736 6.644-.978 1.69-3.23 2.175-4.947 1.777-2.026-.466-3.762-1.902-5.193-3.245-.704-.662-1.49-1.444-1.895-2.376zM27.7 12.965c-.834 2.037-.774 3.605-.77 3.671 0 .015.007.027.01.041.001.016-.004.029-.003.043l.667 4.327a.41.41 0 01-.269.443l-1.63.16a.748.748 0 00-.659.65 3.94 3.94 0 01-.618 1.653c-.27-.04-.574-.117-.78-.289-.058-.049-.11-.104-.165-.16l-.35-.357a.717.717 0 00-1.04.01.789.789 0 00.01 1.084l.347.354c.089.09.178.18.274.261.238.198.5.325.76.421a9.637 9.637 0 00-.37.571c-.708 1.198-2.204 1.666-3.812 1.192a5.125 5.125 0 01-.802-.326c-.121-1.695-.778-3.363-1.384-4.669-1.046-2.251-1.21-3.834-.629-6.05.054-.208.102-.268.903-.394 1.1-.176 2.762-.44 3.869-3.017a.793.793 0 00.024-.557c2.63-.108 4.68-.843 6.361-1.627.296.74.321 1.639.056 2.565zM23.12 88.194c-.01.043 0 .083-.003.125-1.427.26-2.283.216-3.539-.1l.584-8.405a.765.765 0 00-.336-.686c1.9-.014 3.787-.073 5.312-.206l-2.018 9.272zm5.815 4.845l-5.666.018c-.555-1.291-1.4-2.207-2.26-3.056.158.01.317.021.48.021.584 0 1.216-.07 1.97-.211.9.402 4.367 2.031 4.86 2.414.288.224.497.518.616.814zM14.05 89.965l.016-.022c.016-.02.03-.042.046-.064.012-.018.026-.034.037-.053.014-.023.017-.05.028-.072 0-.004.003-.006.005-.01.543.096 1.094.16 1.678.16.808 0 1.685-.096 2.678-.279.382.421.768.812 1.147 1.181.755.739 1.433 1.407 1.929 2.255l-7.596.022.032-3.118zm4.792-10.833h.181a.762.762 0 00-.328.572l-.588 8.447c-1.578.275-2.796.292-3.969.045l-.889-9.164c1.497.054 3.513.1 5.593.1zm20.093-40.806a.017.017 0 01-.003-.004c-1.957-2.319-4.003-3.53-6.637-3.926l-.016-.002c-.23-.49-.389-.964-.537-1.423-.362-1.122-.736-2.284-2.169-2.955-.484-.225-1.109-.38-1.77-.541-.469-.115-.955-.234-1.321-.369-1.31-.483-1.473-.789-1.492-.846-.005-.014.007-.077.07-.185a.784.784 0 00-.245-1.052.7.7 0 00-.684-.03c.081-.111.164-.222.236-.343.223-.376.468-.703.707-1.02.511-.68 1.039-1.381 1.313-2.508l1.145-.113a.762.762 0 00.095-.016c.944-.224 1.56-1.146 1.433-2.166l-.661-4.295c-.002-.162.008-1.389.682-3.046.397-1.366.353-2.664-.102-3.748.114-.058.23-.117.34-.175.3-.156.59-.306.874-.447.475-.236.97-.507 1.332-.987.899-1.191.414-2.904-.552-3.808-.878-.822-2.033-1.137-3.047-1.366-1.022-.232-2.408-.764-3.747-1.279C22.16.901 20.25.17 18.917.12 15.346-.036 10.41 2.79 8.69 5.19 7.026 7.517 6.668 12.452 7.05 15.12l.078.525c.232 1.53.472 3.112-.341 4.062-.338.395-.853.66-1.398.942-.671.346-1.431.739-1.965 1.456-.779 1.048-.886 2.632-.275 4.037.522 1.201 1.435 2.118 2.25 2.882a24.85 24.85 0 001.76 1.517c-2.348 1.65-3.726 4.97-3.726 7.572 0 .007.004.012.004.018 0 .008-.003.014-.003.02.174 3.66-.48 7.234-1.173 11.018-.195 1.06-.39 2.122-.565 3.191v.002l-.001.002-.52 3.277c-.053.338-.12.758-.011 1.21.066.277.196.505.342.711-.02.04-.047.072-.06.117-.144.489-.336.966-.539 1.47-.238.592-.485 1.204-.657 1.857-.415 1.582-.215 3.06.552 4.053a3.17 3.17 0 002.49 1.228c.262 0 .524-.034.78-.104 1.188-.324 2.12-1.388 2.319-2.647a.778.778 0 00-.01-.27c.361-.28.616-.707.68-1.172.1-.71-.171-1.344-.368-1.807l-.562-1.315c.053-.025.112-.035.163-.063.301-.164.435-.51.366-.84.416-1.09.834-2.185 1.269-3.279.008-.02.005-.043.011-.064 1.383.678 2.949.806 4.155.817h.007c.232 0 .43-.12.565-.293.223.347.515.64.828.846.465.305 3.161.95 5.718.95 1.267 0 2.479-.175 3.39-.614.1.074.21.132.342.146.933.1 1.822.148 2.67.148.848 0 1.645-.056 2.407-.154.583 5.839 1.047 13.992-.811 20.512-2.197.691-11.826.573-15.497.354-1.552-7.562-1.407-12.048-1.16-19.35l.016-.471c.013-.422-.304-.777-.71-.791a.75.75 0 00-.762.737l-.016.472c-.247 7.343-.41 12.194 1.308 20.296.004.015.013.027.018.042.01.038.025.071.041.106.023.052.047.1.08.144a.755.755 0 00.198.186c.029.018.056.036.088.05a.702.702 0 00.177.052c.022.004.042.016.064.018.165.013.407.027.71.042l.931 9.622c0 .004-.003.006-.004.01a.76.76 0 00-.016.26.779.779 0 00-.091.347l-.046 4.44c0 .066.006.132.01.197v.007l.001.012c.003.032 0 .062.005.094.006.037.024.067.035.102.011.043.02.085.04.125.015.03.035.055.053.082a.719.719 0 00.601.348h.002l16.472-.049.006.001a.706.706 0 00.27-.058c.029-.011.053-.032.08-.048a.728.728 0 00.144-.101c.026-.026.046-.056.069-.085a.804.804 0 00.089-.137c.017-.038.027-.076.04-.115.009-.032.026-.058.032-.092.172-1.041-.333-2.192-1.289-2.934-.604-.468-3.361-1.767-4.68-2.373.012-.031.03-.059.038-.092l2.06-9.469a.776.776 0 00.003-.316c.685-.108 1.221-.242 1.534-.41.014-.006.021-.02.034-.027a.72.72 0 00.152-.126c.017-.019.038-.035.053-.055a.782.782 0 00.113-.213c.003-.01.01-.017.013-.028l.002-.003c2.065-6.876 1.566-15.481.955-21.566 1.967-.453 3.602-1.285 4.889-2.492 1.857-1.744 2.542-3.953 2.578-5.377a9.693 9.693 0 001.464-1.303c2.11-2.345 2.813-6.433.528-8.822z" fill="#000"/><path fill-rule="evenodd" clip-rule="evenodd" d="M35.102 41.34c-.246 1.555-1.602 2.704-2.79 3.26a7.282 7.282 0 01-5.768.175c-.906-.36-1.583-.85-2.01-1.456-.464-.657-.609-1.488-.37-2.12.28-.74 1.107-1.161 1.98-1.607.235-.119.467-.237.69-.362 1.326-.74 2.576-.742 4.468-.748.57-.002 1.19-.004 1.88-.025.486.014.956.277 1.326.738.48.6.708 1.422.594 2.145zm-1.91-4.414h-.036c-.682.022-1.295.023-1.859.025-2.036.006-3.509.01-5.159.93-.207.116-.424.226-.641.337-1.037.528-2.214 1.128-2.703 2.42-.427 1.127-.214 2.5.553 3.587.598.846 1.497 1.512 2.67 1.98a8.717 8.717 0 006.9-.208c1.989-.933 3.349-2.58 3.638-4.408.184-1.168-.158-2.429-.916-3.374-.651-.813-1.52-1.272-2.447-1.289zM30.2 54.8a1.962 1.962 0 01-.846-.932.726.726 0 00-.974-.383.778.778 0 00-.368 1.014 3.459 3.459 0 001.504 1.658.71.71 0 00.34.087c.267 0 .523-.15.654-.41a.78.78 0 00-.31-1.034zM23.81 16.811c-.521.124-.847.664-.728 1.207.12.541.64.881 1.16.757.522-.125.848-.664.73-1.206-.12-.543-.64-.882-1.161-.758zM22.383 15.355a10.919 10.919 0 012.736.122c.041.007.082.011.122.011a.745.745 0 00.725-.64.763.763 0 00-.605-.88 12.268 12.268 0 00-3.094-.14c-.405.034-.708.403-.677.825.033.42.39.737.793.702z" fill="#000"/></svg>