<svg width="93" height="62" fill="none" xmlns="http://www.w3.org/2000/svg"><path fill-rule="evenodd" clip-rule="evenodd" d="M43.297 17.265a1.01 1.01 0 001.012 1.008 1.01 1.01 0 001.012-1.008 1.01 1.01 0 00-1.012-1.008 1.01 1.01 0 00-1.012 1.008z" fill="#000"/><path fill-rule="evenodd" clip-rule="evenodd" d="M46.708 51.544c-2.031-.32-4.07-.883-6.042-1.43-2.372-.656-4.824-1.335-7.335-1.617-.023-.002-.042.006-.064.006-.507-.054-1.071.186-1.72.477-.382.171-.777.35-1.128.447-1.56.437-2.963.419-3.852-.048-1.158-.607-2.427-1.768-2.519-3.207-.041-.656.31-1.4.873-1.85.247-.197.744-.498 1.32-.334.136.04.268.026.394-.01a.713.713 0 00.745.527.72.72 0 00.657-.775 26.885 26.885 0 00-.334-2.456c.74-.255 1.068.105 1.739 1.14.337.52.687 1.057 1.192 1.408l.007.005.007.005c.07.048.146.079.224.099.022.006.044.006.066.01.04.006.077.017.116.017.018 0 .034-.012.051-.013.024 0 .046.007.07.002 2.347-.395 5.16.243 7.88.861 2.227.507 4.508 1.025 6.66 1.025.866 0 1.712-.085 2.524-.288 1.345-.334 2.556-.969 3.727-1.583.835-.437 1.623-.85 2.456-1.163a.71.71 0 00.44-.533c1.493.304 2.873 1.122 3.826 2.32a6.547 6.547 0 011.402 4.022c-2.578 2.903-8.63 3.684-13.382 2.936zm-27.323-3.728a3.135 3.135 0 011.227-1.68 3.164 3.164 0 012.027-.51 3.212 3.212 0 00-.03.637c.034.546.193 1.08.439 1.593l-3.663-.04zm-11.85-.262c-.25-.954-.357-1.93-.336-2.91.733.017 1.387.248 1.81.672.484.486.67 1.42.195 1.941a.709.709 0 00-.175.446l-1.487-.017c-.003-.044.005-.088-.007-.132zm.694-10.652s0 .003.003.004c.112.112.292.354.466.587.473.635 1.008 1.355 1.654 1.634 1.349.58 3.022.8 4.693.8 2.928 0 5.84-.675 6.97-1.27.383.903.684 1.809.901 2.653a63.261 63.261 0 00-15.495-.832c.148-1.21.385-2.425.808-3.576zm5.66-4.982a.716.716 0 00.287.06c1.852 0 3.545.765 5.029 2.272.865.878 1.598 1.966 2.198 3.113-.015.008-.031.007-.047.015-1.225.66-7.037 1.89-10.43.428-.29-.125-.777-.779-1.069-1.17-.224-.301-.418-.563-.608-.75a.718.718 0 00-.474-.202c1.154-2.183 3.11-3.642 5.114-3.766zm4.006 15.84c-.003.014.002.026 0 .04l-7.281-.08c.547-1.05.34-2.492-.582-3.416-.693-.695-1.72-1.079-2.84-1.098.024-.42.052-.845.085-1.278a61.735 61.735 0 0115.868.878c.027.005.053.005.079.007.061.414.094.792.1 1.127-.067.095-.134.19-.193.289a4.645 4.645 0 00-3.328.718 4.6 4.6 0 00-1.908 2.813zM4.426 41.4c.481-.285.905-.714 1.205-1.265.373-.684.522-1.423.634-2.06.183-1.054.296-2.264-.154-3.357 1.833-4.445 6.159-6.031 9.33-6.031h.006c6.112 0 10.049 6.795 11.01 13.894a2.782 2.782 0 00-1.779.212c-.356-2.728-1.771-6.832-4.443-9.546-1.764-1.792-3.8-2.7-6.052-2.702a.773.773 0 00-.312-.067c-2.678.133-5.28 2.102-6.626 5.019-.813 1.76-1.152 3.698-1.332 5.514a.702.702 0 00-.044.302c0 .014.008.024.01.037-.067.751-.112 1.48-.152 2.159a.706.706 0 00.073.336c-.003.022-.002.044-.004.067-.003.02-.015.036-.017.056-.093 1.246.015 2.49.306 3.702l-1.962-.021a.71.71 0 00.41-.736 23.957 23.957 0 01-.107-5.513zm-1.909-1.386c-.153-.284-.04-.717.043-.948.064-.187.145-.369.225-.55.132-.301.27-.614.362-.965.078-.298.117-.602.153-.909.022-.187.043-.375.08-.56.075-.371.213-.64.391-.754a.348.348 0 01.18-.042c.029 0 .051.002.059.005a.72.72 0 00.892.34c.16.676.071 1.449-.058 2.199-.092.525-.212 1.127-.481 1.62-.246.452-.603.765-.982.86-.337.086-.732-.051-.864-.296zm27.274-4.283c1.34-.79 2.718-1.603 3.768-1.842 1.062 2.165 1.94 6.127 1.256 7.702a.717.717 0 00.661 1.003.722.722 0 00.663-.434c.753-1.734.021-6.622-1.505-9.31a.73.73 0 00-.101-.172 6.495 6.495 0 00-.357-.528c1.95-.602 5.62-1.674 10.533-2.072.176.08.366.15.575.211a.696.696 0 00-.093.484c.337 1.85 2.206 3.349 4.346 3.489.132.007.264.012.397.012 1.49 0 3.057-.54 4.776-1.645a17.83 17.83 0 004.47-4.094.699.699 0 00.135-.404c.119.125.24.25.368.367a.726.726 0 00.487.189c.039 0 .075-.017.113-.023.056.136.141.26.276.343 3.247 2.001 5.43 5.601 5.697 9.396.216 3.075-2.108 7.187-4.736 9.922a7.977 7.977 0 00-1.702-4.63c-1.153-1.45-2.817-2.445-4.624-2.825 1.445-1.505 2.938-2.647 4.139-3.13a.718.718 0 10-.54-1.332c-2.397.965-4.725 3.495-5.613 4.537-.023.027-.031.06-.05.09-.025.04-.05.077-.068.122a.66.66 0 00-.032.147c-.006.031-.02.059-.022.091 0 .013.006.023.007.036.001.05.014.098.027.148.01.042.017.084.035.124.014.032.036.061.056.09a33.43 33.43 0 00-1.84.899c-1.146.6-2.228 1.168-3.404 1.46-2.495.623-5.555-.073-8.513-.744-2.732-.621-5.552-1.252-8.092-.917-.213-.217-.424-.538-.63-.856-.596-.918-1.488-2.253-3.242-1.76a25.635 25.635 0 00-.721-2.501c.992-.41 2.06-1.03 3.1-1.643zm30.314 14.847c.017.021.042.029.06.047a.68.68 0 00.266.162c.027.01.049.028.078.034.05.01.1.016.15.016.021 0 .038-.009.059-.01a.723.723 0 00.195-.038.697.697 0 00.2-.115l.008-.003c3.457-2.866 6.862-8.276 6.574-12.368-.298-4.247-2.742-8.277-6.377-10.517a.705.705 0 00-.485-.091.72.72 0 00-.174-.256c-2.146-1.96-2.711-5.38-2.736-6.121a.715.715 0 00-.745-.694c-.026 0-.049.014-.075.018.185-.222.334-.465.467-.707.345-.623.712-1.358.713-2.188.001-1.123-.729-2.198-1.775-2.616-1.047-.42-2.322-.142-3.099.671a.715.715 0 00.025 1.015.724.724 0 001.019-.024 1.44 1.44 0 011.518-.329c.504.201.87.74.87 1.281-.001.49-.265 1.01-.535 1.498-.15.272-.3.526-.48.645-.075.05-.166.059-.17.066a.722.722 0 00-1.02.014.715.715 0 00.014 1.015c.27.262.636.395 1.017.395.288 0 .582-.09.854-.245a.691.691 0 00-.04.232c.027.783.497 3.739 2.215 6.03a.716.716 0 00-.66.264 16.372 16.372 0 01-4.11 3.764c-1.6 1.03-3.006 1.494-4.294 1.405-1.273-.082-2.76-.917-3.02-2.303.192.016.385.031.578.031.883 0 1.748-.163 2.331-.528.798-.503 1.48-.997 2.083-1.512a.716.716 0 00.077-1.013.723.723 0 00-1.016-.078c-.55.47-1.175.923-1.914 1.388-.705.444-2.71.39-3.576-.093-.33-.193-1.022-1.274-1.679-2.387 1.335-.234 2.606-.553 3.036-1.332a.724.724 0 00-.28-.983.716.716 0 00-.976.278c-.123.153-.634.395-2.366.68l-.178.03-.364-.652c-.454-.812-.813-1.453-1.036-1.774-.012-.017-.032-.026-.045-.042a.671.671 0 00-.107-.102.691.691 0 00-.11-.074.71.71 0 00-.127-.05.69.69 0 00-.14-.027c-.022-.003-.041-.013-.063-.013-.178 0-.386.01-.604.02-.169.01-.407.022-.627.024.87-1.642 1.386-4.078 1.288-6.263-.002-.028-.016-.053-.02-.081-.005-.027.001-.054-.005-.08-.276-.985-.56-2.003-.63-3.006-.05-.736.002-1.798.54-2.689a.713.713 0 00-.032-.782c2.559 1.052 5.544 1.082 8.1.02.342.306.87 1.596 1.13 2.236.223.546.434 1.063.641 1.433.615 1.1.82 2.422 1.02 3.701a.721.721 0 001.426-.22c-.209-1.339-.445-2.856-1.186-4.179-.164-.294-.358-.77-.564-1.275-.669-1.639-1.167-2.737-1.98-3.068a1.201 1.201 0 00-.947.006c-2.54 1.091-5.59.923-8.003-.422-.101-.186-.304-.764-.189-1.434.088-.506.345-.904.766-1.182a.703.703 0 00.26-.343c3.26-1.704 7.037-2.515 10.7-2.27 2.07.137 6.037 1.554 6.056 2.33a.705.705 0 00.278.537.707.707 0 00.434.503c.095.035.617.288 1.554 1.792.355.569.672 1.59.815 2.297.498 2.455-.767 8.199-2.52 9.912a.716.716 0 00.506 1.23.717.717 0 00.505-.206c2.153-2.102 3.515-8.3 2.924-11.22-.162-.795-.522-1.998-1.005-2.771-.76-1.22-1.441-1.95-2.079-2.272-.333-2.438-6.52-3.509-7.371-3.566a21.848 21.848 0 00-11.9 2.653.705.705 0 00-.353.527 3.15 3.15 0 00-1.028 2.079c-.094.983.207 1.941.572 2.38.004.009.011.014.017.022.02.023.038.05.059.07.022.022.052.03.077.05.023.018.039.043.065.058.194.112.399.202.6.3a.708.708 0 00-.586.335c-.578.957-.834 2.176-.74 3.525.076 1.117.365 2.176.652 3.201.084 2.19-.526 4.71-1.462 6.015a.718.718 0 00-.134.379.996.996 0 00.292.767c.333.332.842.408 1.422.408.236 0 .483-.013.735-.026l.141-.005c.2.334.471.819.757 1.33.866 1.55 1.6 2.832 2.23 3.717-4.71.507-8.186 1.573-9.932 2.115-.339.104-.612.19-.818.246-.01.003-.016.01-.026.012-.048.015-.09.043-.134.068-.038.022-.078.04-.11.066-.034.027-.056.063-.084.096-.032.04-.067.078-.091.123-.004.01-.013.015-.016.023-.016.032-.014.065-.024.097-.015.049-.031.096-.036.148-.004.05.004.098.01.149.004.034-.002.066.007.1.003.011.01.02.014.03.01.03.026.055.04.084.024.05.05.1.086.142.019.025.041.045.064.067.044.041.09.075.142.105.016.01.027.025.045.033.078.035.157.096.236.166-1.13.37-2.366 1.096-3.654 1.856-.984.58-1.989 1.165-2.877 1.535-2.082-4.986-5.764-8.78-10.732-8.78h-.006c-3.606 0-8.52 1.808-10.637 6.862a1.528 1.528 0 00-.442-.203 1.752 1.752 0 00-1.372.212c-.516.331-.87.913-1.025 1.68-.044.223-.071.449-.098.675-.029.239-.054.478-.115.71a5.381 5.381 0 01-.289.755 8.94 8.94 0 00-.266.653c-.28.795-.262 1.521.048 2.099.332.615.991.992 1.712 1.055a25.385 25.385 0 00.147 5.358c.033.243.19.433.394.535l-2.75-.03c-.426-.023-.725.315-.728.711a.719.719 0 00.712.726l23.053.253h.008a.703.703 0 00.224-.045 7.235 7.235 0 001.877 1.394c.671.352 1.496.529 2.422.529.77 0 1.612-.123 2.493-.37.455-.126.92-.335 1.332-.52.329-.148.826-.37.945-.38.015.005.028 0 .043.002.014.003.025.011.04.013 2.398.27 4.793.933 7.11 1.574 2.011.557 4.091 1.132 6.204 1.464 1.174.185 2.442.286 3.733.286 3.614 0 7.396-.799 9.87-2.702.008.01.01.023.019.032z" fill="#000"/><path fill-rule="evenodd" clip-rule="evenodd" d="M45.766 15.133a.72.72 0 00.25-1.392 5.81 5.81 0 00-3.096-.252.718.718 0 10.274 1.41 4.399 4.399 0 012.322.19.74.74 0 00.25.044zM91.397 47.832H76.549c-.212-1.433-.183-2.554-.132-3.801.033-.811.066-1.65.041-2.682-.063-2.597-.362-5.931-2.127-8.695-1.141-1.788-2.933-3.133-4.83-3.682 1.19-2.348 1.62-5.045 1.893-7.639.255-2.415.436-5.2-.643-7.68-1.049-2.41-3.75-4.628-6.691-3.986a.718.718 0 10.308 1.403c2.106-.462 4.228 1.243 5.058 3.154.94 2.162.769 4.725.534 6.959-.274 2.604-.713 5.3-1.958 7.525a6.15 6.15 0 00-1.823.16.718.718 0 10.344 1.395 4.8 4.8 0 011.808-.084c1.835.256 3.668 1.5 4.784 3.246 1.573 2.465 1.842 5.548 1.902 7.959.024.985-.01 1.8-.041 2.59-.05 1.212-.081 2.388.116 3.858h-8.488a.767.767 0 00-.77.766c0 .423.345.766.77.766h11.152a.754.754 0 00.048.549 19.863 19.863 0 012.13 8.98c-.002.423.341.767.767.768h.002a.768.768 0 00.769-.764 21.398 21.398 0 00-2.228-9.533h12.153c.425 0 .77-.343.77-.766a.767.767 0 00-.77-.766zM60.567 58.938c.381-.338.944-.49 1.672-.617a22.08 22.08 0 019.168.371l.008 1.066H60.251c-.054-.247.066-.598.316-.82zm12.725.586c-.113.015-.226.035-.339.052l-.013-1.477a.767.767 0 00-.558-.731 23.579 23.579 0 00-10.406-.556c-.855.148-1.742.37-2.434.984-.803.713-1.202 2.038-.48 3.018.13.176.323.265.524.291.134.11.3.185.486.185h11.393c.494 0 .96-.078 1.41-.152.203-.034.405-.067.608-.093a.767.767 0 00.669-.855.772.772 0 00-.86-.666z" fill="#000"/></svg>