<svg width="39" height="99" fill="none" xmlns="http://www.w3.org/2000/svg"><path fill-rule="evenodd" clip-rule="evenodd" d="M36.824 92.64a2.263 2.263 0 01-1.307 1.022h-.28l-.23-4.438a2.255 2.255 0 012.061 1.694c.153.589.066 1.2-.244 1.723zm-4.044 4.396l-.128-1.73a.751.751 0 00-.014-.342c-.003-.01-.01-.016-.014-.026L30.622 67.92c.12-.086.245-.17.342-.29.516-.628.437-1.48.332-2.066a.79.79 0 00-.044-.153c-.055-.135-.112-.464-.036-.572.036-.05.214-.14.65-.122.042.002.08-.014.12-.02.154.319.31.914.31 2.045 0 .007.004.012.004.02 0 .007-.003.013-.003.02l1.566 30.186-1.083.067zm-4.284-30.14c-1.73.044-2.983-.312-3.747-1.05-.71-.686-1.058-1.734-1.068-3.205-.001-.05-.02-.094-.031-.142.014-.036.015-.074.023-.112a.706.706 0 00.022-.156c0-.017.009-.033.008-.05-.045-.747.251-1.5.79-2.018a2.622 2.622 0 012.054-.707c.042.005.079-.009.12-.01.007.001.013.007.02.009.853.227 1.735.461 2.533.811.844.37 1.504.837 1.962 1.386.276.332.5.714.764 1.18.024.042.074.13.115.215a.766.766 0 00-.271.133c-1.05-.01-1.58.41-1.836.773-.517.731-.271 1.646-.168 1.947.096.582.003.732-.018.757-.052.064-.28.215-1.272.239zM14.707 91.948c.124.162.307.27.51.298l2.115.297a2.277 2.277 0 011.939 2.57 2.255 2.255 0 01-.886 1.498 2.254 2.254 0 01-1.687.435L6.542 95.59a.253.253 0 01-.214-.283l1.188-8.41c1.29.347 2.709.537 4.396.682 1.05.09 2.102.147 3.155.2l-.507 3.598a.766.766 0 00.147.57zm4.793-70.08c-.195.195-.595.597-.871.793-.187-.295-.45-.784-.626-1.11-.621-1.157-.89-1.633-1.323-1.814-.75-.312-1.633-.27-2.422.116-.787.388-1.359 1.061-1.567 1.846-.209.784-.046 1.65.447 2.377.24.355.543.647.883.866-.015.048-.04.093-.045.146-.043.405-.448.815-.878 1.248-.332.336-.705.72-.965 1.178-.681-.53-1.288-1.308-1.697-2.822-.004-.014-.014-.024-.02-.038-.004-.013-.001-.027-.006-.041-.676-1.732-.907-3.756-.705-6.185.202-2.44.933-5.843 3.267-8.194 1.53-1.542 3.645-2.522 5.955-2.76 2.179-.227 4.46.204 6.594 1.245 1.565.764 3.093 1.878 4.54 3.314.35.345 1.088 1.23 1.352 2.64l-.085-.001c-1.037-.03-1.934-.058-3.246.365l-.12.038c-2.268.729-3.906 1.255-5.644 3.163-.196.214-.507.657-.998 1.362-.424.608-1.134 1.628-1.342 1.809a8.17 8.17 0 00-.478.458zM9.059 12.5c-.009-1.47.784-2.967 2.033-3.745a.77.77 0 00.246-1.061.774.774 0 00-1.065-.246c-1.661 1.034-2.71 2.925-2.761 4.868-1.71-.314-2.958-.966-3.698-1.965-1.199-1.616-.948-4.218.572-5.925C5.753 2.891 7.99 2.013 10.53 2.013h.05c.93.003 1.56.134 2.043.423.573.342 1.028.988 1.282 1.82.25.822.296 1.738.34 2.626a.746.746 0 00.155.4 10.699 10.699 0 00-2.525 1.868c-1 1.007-1.74 2.17-2.286 3.37-.18-.004-.357-.01-.53-.02zm13.063 8.644l.466-.665c.345-.494.735-1.053.873-1.205 1.461-1.604 2.784-2.029 4.974-2.733l.121-.038c1.059-.34 1.722-.32 2.727-.292.145.005.296.009.453.012.583 1.69.658 3.539.207 5.236a.766.766 0 00-.211.057l-9.61-.372zm16.443 69.39a3.795 3.795 0 00-3.637-2.853L33.84 66.702h-.001c-.003-1.123-.15-2-.445-2.638.145-.194.24-.425.266-.664.062-.567-.21-1.043-.37-1.327-.206-.363-.468-.8-.783-1.214-.405-2.287-.595-7.551.192-9.502.145-.359.317-.712.49-1.065.41-.844.836-1.717.955-2.721.279-2.358-.568-4.187-1.637-6.003.013-.043.035-.083.041-.13a13.507 13.507 0 00-2.734-9.88c-.01-.012-.024-.018-.035-.03a.815.815 0 00.103-.141c.41-.766.626-1.616.656-2.48l.907-.024c.97-.026 1.749-.774 1.817-1.795l-.026-4.58c.785-2.304.715-4.917-.197-7.22-.136-2.355-1.358-3.821-1.888-4.348-1.568-1.555-3.235-2.768-4.952-3.604-2.395-1.168-4.964-1.65-7.43-1.395-1.04.107-2.043.35-2.99.707-.048-.932-.107-1.89-.397-2.84-.366-1.199-1.065-2.155-1.966-2.694-.953-.569-2.072-.638-2.83-.642h-.056c-2.982 0-5.639 1.067-7.3 2.93-2.018 2.269-2.301 5.65-.658 7.865 1.238 1.668 3.408 2.592 6.438 2.77a18.92 18.92 0 00-.845 4.264c-.218 2.632.04 4.85.78 6.788v.005c.652 2.413 1.776 3.467 3.26 4.307.013.006.027.004.039.01a.747.747 0 00.335.089H12.63a.748.748 0 00.32-.095c.022-.012.038-.031.06-.045a.78.78 0 00.208-.209c.01-.016.03-.023.04-.04.011-.02.011-.041.02-.06a.706.706 0 00.048-.148.682.682 0 00.022-.152c0-.022.01-.042.009-.064-.02-.37.303-.727.84-1.268.55-.555 1.16-1.188 1.291-2.08a.765.765 0 00.557-.637.77.77 0 00-.674-.858c-.359-.045-.716-.28-.954-.632-.239-.351-.326-.77-.234-1.12.093-.349.377-.668.758-.856.342-.169.722-.21 1.036-.116.158.214.459.773.665 1.157.695 1.293 1.025 1.87 1.57 1.995.876.205 1.678-.608 2.385-1.32.122-.124.228-.23.32-.313l9.01.348c-.16.189-.312.377-.459.56l-.154.193c-.54.668-1.14 1.312-1.852 1.493-.323.08-.723.007-.998-.185-.116-.08-.26-.218-.278-.41a.77.77 0 00-.845-.69.77.77 0 00-.692.843c.06.604.39 1.143.928 1.52a2.852 2.852 0 001.612.495c.222 0 .442-.027.654-.08 1.15-.293 1.965-1.143 2.673-2.02l.158-.196c.337-.419.665-.814 1.023-1.133l.022 3.663a.325.325 0 01-.316.303l-1.486.04a.768.768 0 00-.705.527.758.758 0 00-.209.567 4.182 4.182 0 01-.203 1.496 7.775 7.775 0 00-2.243-.261.771.771 0 00-.743.798c.015.425.376.773.8.741.483-.02.962.039 1.434.132-.171.882-.686 1.704-1.436 2.199-.794.527-2.712-.118-3.434-.361a.77.77 0 10-.492 1.46c.704.236 1.901.638 3.043.638.625 0 1.234-.12 1.736-.453a4.933 4.933 0 001.582-1.717 11.953 11.953 0 012.027 6.038 27.804 27.804 0 01-.612-1.096.773.773 0 00-1.04-.329.769.769 0 00-.33 1.039c.478.914.976 1.725 1.457 2.509 1.302 2.12 2.331 3.794 2.061 6.08-.086.723-.419 1.423-.778 2.16-.02.017-.044.026-.062.046a7.417 7.417 0 01-2.84 1.962.77.77 0 10.56 1.437c.48-.186.937-.428 1.378-.693-.355 2.062-.305 4.907-.11 7.03a8.414 8.414 0 00-.916-.476c-.907-.398-1.848-.648-2.758-.89a.776.776 0 00-.307-.02c-.027-.005-.049-.02-.077-.023-.013-.002-.028.002-.042 0-.883-1.885-3.127-3.201-5.001-3.65-1.936-.464-5.631-3.211-7.637-5.016-1.44-1.294-2.312-3.643-1.278-5.332a.772.772 0 00-1.318-.803c-1.507 2.462-.32 5.589 1.562 7.28 1.424 1.282 5.694 4.743 8.31 5.37 1.14.272 2.864 1.093 3.711 2.347a4.154 4.154 0 00-1.584.933c-.702.674-1.127 1.602-1.228 2.565-1.861.41-4.718-.017-8.16-1.25l-1.111-.393c-2.774-.975-7.416-2.61-9.272-3.965-1.578-1.152-1.855-9.247-1.407-11.99.375-2.296.764-4.67 1.917-6.672 1.53-2.653 4.28-4.424 6.832-5.961 1.926 2.355 7.3 6.508 13.025 6.508.393 0 .787-.02 1.182-.06a.77.77 0 10-.16-1.533c-5.651.597-11.812-4.183-13.199-6.349-.024-.038-.061-.062-.092-.095-.037-.04-.07-.087-.113-.117-.035-.024-.075-.035-.114-.053-.052-.025-.101-.055-.156-.068-.039-.008-.078-.003-.116-.006-.06-.004-.119-.014-.18-.004-.045.006-.087.03-.13.046-.05.017-.1.024-.146.052-2.727 1.633-6.122 3.665-7.971 6.873C1.53 38.825 1.1 41.452.72 43.77.374 45.893.18 55.383 2.74 57.252c2.04 1.49 6.632 3.106 9.67 4.174l1.103.391c2.094.75 4.783 1.501 7.158 1.501.523 0 1.026-.041 1.508-.122.103 1.606.59 2.88 1.495 3.756 1.034 1 2.522 1.488 4.541 1.488.106 0 .212-.002.319-.004.193-.005.385-.018.574-.034l1.944 26.22-4.768 1.38a.25.25 0 01-.306-.18l-2.06-7.981a95.028 95.028 0 005.37-.362.77.77 0 10-.15-1.534c-5.67.55-11.42.583-17.094.099-4.086-.35-6.346-.958-9.26-3.595.538-2.403.758-4.951.96-7.427.374-4.593.76-9.342 3.269-13.19a.772.772 0 00-1.294-.84c-2.722 4.175-3.125 9.122-3.515 13.906-.22 2.693-.426 5.236-1.016 7.652-.007.033 0 .064-.003.097-.006.053-.012.105-.007.158a.71.71 0 00.033.143.718.718 0 00.05.136.768.768 0 00.092.13c.02.025.031.055.056.078 1.622 1.526 3.062 2.48 4.618 3.108L4.8 95.09a1.793 1.793 0 001.525 2.024L16.48 98.57a3.811 3.811 0 002.834-.73 3.784 3.784 0 001.486-2.513 3.82 3.82 0 00-3.252-4.31l-1.351-.19.42-2.976c1.143.04 2.287.073 3.432.073.762 0 1.526-.01 2.288-.028l2.145 8.309a1.796 1.796 0 001.745 1.34c.153 0 .309-.018.464-.059l4.477-1.296.128 1.717c.03.404.368.713.769.713.016 0 .032 0 .048-.002l2.608-.16a.769.769 0 00.723-.808l-.127-2.448h.306c.064 0 .129-.01.192-.025a3.799 3.799 0 002.34-1.754 3.78 3.78 0 00.41-2.89z" fill="#000"/></svg>