<svg width="177" height="55" fill="none" xmlns="http://www.w3.org/2000/svg"><path d="M.335 30.243l.402 9.368c.18 3.122.313 6.245.403 9.367v.335l-.201-.201v-.468C.715 44.629.492 40.68.269 36.8A261.774 261.774 0 010 24.89V17.33v-3.546l.134-3.614C.18 8.788.291 7.45.47 6.156a31.31 31.31 0 00.268-4.149h.269c.312 0 .58-.022.804-.067.224-.044.402-.067.536-.067.447 0 .715.29.805.87.09.58.134 1.026.134 1.339l-.067 1.405h.804c.045-.268.112-.692.201-1.272.135-.624.313-1.249.537-1.873.223-.625.47-1.16.737-1.606C5.81.246 6.167 0 6.57 0c.447 0 .782.401 1.005 1.204.269.803.47 1.762.604 2.878.134 1.07.2 2.185.2 3.345.046 1.115.068 2.007.068 2.676v.803c0 5.13.045 10.26.134 15.39.09 5.13.134 10.26.134 15.389 0 .401-.022.825-.067 1.271v1.807c.045.178.067.379.067.602h.67c.403 0 .805.022 1.207.067H11.8c2.816 0 5.587-.134 8.313-.402a74.79 74.79 0 018.38-.468h.268c.447 0 .983.067 1.609.2.625.09.938.402.938.938v.133c-2.368 0-4.692.09-6.972.268-2.28.134-4.603.312-6.972.535 1.743-.089 3.464-.2 5.162-.334 1.743-.134 3.486-.201 5.23-.201.58 0 1.139.022 1.675.067.537 0 1.095.022 1.676.067l-.268.803c.268.044.626.111 1.073.2.447.045.871.157 1.273.335.447.178.827.401 1.14.67.313.222.47.512.47.869 0 .624-.291 1.048-.872 1.271-.581.268-1.117.513-1.61.736a8.312 8.312 0 00-2.144-.401h-2.146c-1.564 0-3.106.067-4.625.2-1.43.134-2.883.268-4.358.402 1.073-.045 2.1-.09 3.084-.134a84.03 84.03 0 013.352-.067c.983 0 1.944.023 2.883.067.983.045 1.966.156 2.95.335-.805.356-1.81.624-3.017.803a44.474 44.474 0 01-3.688.401c-1.251.09-2.502.134-3.754.134a281.6 281.6 0 00-3.285.134l-.603-.67c-.983.224-1.967.358-2.95.402-.983.09-1.989.134-3.017.134-1.072 0-2.145-.045-3.217-.134a35.778 35.778 0 01-3.151-.401L3.15 50.718a26.27 26.27 0 00-1.61-1.472c0-3.212-.088-6.379-.267-9.502a358.47 358.47 0 00-.537-9.5H.335zm14.28 21.412c-1.073.044-2.19.066-3.352.066-1.386 0-2.682-.044-3.889-.133-1.206-.09-2.056-.246-2.547-.469l-2.011-1.94-.604-7.896v1.472c0 1.026.067 2.052.201 3.078.134 1.026.202 2.052.202 3.078v.402c.357.356.692.713 1.005 1.07.358.357.693.736 1.006 1.138h.469c.983 0 1.944.044 2.883.133.983.134 1.966.201 2.95.201a33.38 33.38 0 003.016-.134c.358 0 .738-.022 1.14-.066h-.47zM8.915 46.97l.67.134h.805c1.162 0 2.324-.023 3.486-.067a23.192 23.192 0 003.486-.402c-1.43.09-2.838.134-4.223.134-1.386 0-2.794.022-4.224.067v.134zm-4.491 5.821c.76.223 1.541.357 2.346.401.85.09 1.72.134 2.614.134.537 0 1.05-.022 1.542-.067h1.274a5.785 5.785 0 01-.938.067 8.659 8.659 0 01-1.073.067H8.85a21.92 21.92 0 01-1.677-.067l-1.609-.134c-.491-.044-.849-.111-1.072-.2-.134-.134-.358-.38-.67-.736l-1.006-1.004a22.076 22.076 0 01-1.006-1.07c-.268-.313-.425-.514-.47-.603l3.085 3.212zm2.748-6.089l-1.475-.268c.268.09.67.268 1.207.536.536.223.939.357 1.207.401l-.201-.736-.738.067zM51.07 53.729c1.967.624 3.978.937 6.034.937 2.324 0 4.492-.357 6.503-1.071a20.352 20.352 0 005.497-2.944 22.339 22.339 0 004.358-4.35 22.991 22.991 0 002.346-3.746 32.93 32.93 0 01-2.011 3.68 18.247 18.247 0 01-4.022 4.483c-1.565 1.293-3.375 2.32-5.43 3.078-2.056.803-4.38 1.204-6.973 1.204h-.871c-3.71 0-6.927-.825-9.654-2.476-2.726-1.65-4.983-3.747-6.77-6.29-1.788-2.586-3.13-5.464-4.023-8.63-.85-3.168-1.274-6.29-1.274-9.368 0-1.294.067-2.654.201-4.082.134-1.471.425-2.944.872-4.416a20.132 20.132 0 011.877-4.282c.85-1.427 1.989-2.72 3.419-3.88a18.219 18.219 0 013.754-2.342c1.386-.67 2.749-1.049 4.09-1.138-.135.09-.202.179-.202.268 0 .178.09.379.269.602.223.178.335.38.335.602v.134c0 .178-.112.312-.336.401-.178.09-.491.223-.938.402-.447.134-1.028.357-1.743.669-.715.312-1.564.78-2.547 1.405.268.268.402.468.402.602.849-.446 1.631-.758 2.346-.936a8.33 8.33 0 012.011-.268c1.296 0 2.235.223 2.816.669.58.446.871.78.871 1.004 0 .357-.29.646-.871.87-.536.223-1.184.512-1.944.87-.715.311-1.475.758-2.28 1.337-.804.536-1.43 1.339-1.877 2.41-.715 1.07-1.273 2.408-1.676 4.014a22.403 22.403 0 00-.536 4.884c0 2.81.335 5.375 1.006 7.695.67 2.32 1.609 4.327 2.815 6.022 1.252 1.695 2.749 3.01 4.492 3.947 1.788.937 3.799 1.406 6.033 1.406 2.146 0 4.068-.536 5.766-1.606 1.743-1.07 3.218-2.52 4.424-4.35 1.207-1.873 2.123-4.014 2.749-6.423.626-2.453.939-5.063.939-7.828 0-1.338-.09-2.654-.269-3.948a13.632 13.632 0 00-.938-3.814 12.443 12.443 0 00-1.944-3.412c-.805-1.07-1.877-2.052-3.218-2.944-1.698-.892-3.084-1.517-4.157-1.874-1.072-.401-1.609-.78-1.609-1.137 0-.134.09-.29.269-.469 2.234.491 4.245 1.294 6.033 2.41a13.7 13.7 0 014.157 4.014c-1.207-1.829-2.57-3.234-4.09-4.216-1.654-1.115-3.62-1.984-5.9-2.609.224-.223.336-.424.336-.602 0-.179-.335-.335-1.006-.469-.625-.133-1.318-.29-2.078-.468a15.069 15.069 0 01-2.145-.669c-.626-.268-.939-.602-.939-1.004 0-.49.402-.847 1.207-1.07.804-.223 1.788-.49 2.95-.803.313 0 .603.044.871.134.313.089.581.178.805.267a21.963 21.963 0 016.234 2.141 20.335 20.335 0 015.364 3.948c1.608 1.606 2.95 3.524 4.022 5.754 1.072 2.186 1.765 4.662 2.078 7.427-.223-2.631-.827-5.018-1.81-7.159a20.348 20.348 0 00-3.754-5.821 20.992 20.992 0 00-5.363-4.282 28.217 28.217 0 00-6.57-2.677c2.056 0 4.09.424 6.1 1.272 2.056.802 3.933 2.007 5.632 3.613 1.698 1.56 3.173 3.501 4.424 5.82 1.252 2.32 2.145 4.975 2.682 7.963-.09 0-.224.045-.402.134a1.838 1.838 0 01-.403.067 38.02 38.02 0 01.604 6.624 29.15 29.15 0 01-1.475 9.167c-.939 2.988-2.324 5.665-4.157 8.029-1.787 2.32-4 4.193-6.636 5.62-2.637 1.472-5.654 2.208-9.05 2.208-2.012 0-3.978-.29-5.9-.87a24.11 24.11 0 01-5.363-2.341c.09.089.134.178.134.267 0 .09-.112.134-.335.134a20.95 20.95 0 005.363 2.476zm26.414-23.954a51.833 51.833 0 01-1.005 5.42 30.579 30.579 0 01-1.743 5.42 23.815 23.815 0 01-2.75 5.018 18.424 18.424 0 01-3.954 3.947 19.16 19.16 0 004.022-3.814 22.774 22.774 0 002.883-4.95 26.64 26.64 0 001.81-5.621c.447-2.008.715-3.993.804-5.955a1.736 1.736 0 00-.067.535zm-5.363 3.88a24.65 24.65 0 01-1.609 4.952 16.724 16.724 0 01-2.749 4.215 14.8 14.8 0 002.816-4.148 20.498 20.498 0 001.542-5.018zm6.905-5.887c0 .758-.045 1.539-.134 2.341a45.22 45.22 0 01-.201 2.342c0-.758.044-1.605.134-2.542.09-.982.134-2.052.134-3.212v-1.204c.045.357.067.736.067 1.137v1.138zm-6.905 5.888c.224-.982.38-1.963.47-2.944.133-1.026.2-2.052.2-3.078 0-1.115-.067-2.253-.2-3.413.044.491.066.96.066 1.405.045.447.067.915.067 1.406 0 2.275-.2 4.483-.603 6.624zm6.57-.803l-.603 3.278-.67 2.41a23.033 23.033 0 01-.805 2.274 36.27 36.27 0 001.206-4.148c.358-1.383.648-2.744.872-4.082v.268zM45.775 51.387c0-.045-.023-.09-.067-.134 0 .045.022.09.067.134zm30.838-10.572zm-.738 1.606zm-5.832-26.162a1.05 1.05 0 00-.201-.268c.044.09.111.179.2.268zm6.368 25.024l-.268.67.269-.67zM121.41 51.922c-.357 0-.804-.156-1.34-.468-.492-.268-.738-.625-.738-1.07a8.3 8.3 0 01.268-2.142c.179-.714.313-1.427.403-2.141l-.269.2-.804 3.815c-.536-.759-.804-1.517-.804-2.275 0-.179.044-.357.134-.536-.85.402-1.721.736-2.615 1.004a8.868 8.868 0 01-2.681.402c-2.414 0-4.693-.313-6.838-.937a55.3 55.3 0 01-6.37-2.342l-.334-.87a23.424 23.424 0 01-5.967-3.613 27.06 27.06 0 01-4.693-5.152 27.402 27.402 0 01-3.083-6.29 22.223 22.223 0 01-1.073-6.825c0-2.007.268-3.97.804-5.888a19.66 19.66 0 012.548-5.352l-.402-.201a25.318 25.318 0 00-2.615 5.286 18.254 18.254 0 00-.938 5.82c0 1.964.268 3.949.804 5.956a27.021 27.021 0 002.28 5.687 28.486 28.486 0 003.485 5.085 23.83 23.83 0 004.425 3.814c-1.564-.981-3.04-2.185-4.425-3.613a28.173 28.173 0 01-3.62-4.951 29.918 29.918 0 01-2.346-5.688c-.581-2.007-.871-3.947-.871-5.82 0-3.302.737-6.335 2.212-9.1a24.393 24.393 0 015.9-7.227c2.413-2.007 5.139-3.568 8.178-4.683 3.084-1.16 6.19-1.74 9.318-1.74 2.012 0 3.933.268 5.766.803 1.877.535 3.754 1.115 5.631 1.74-.223.133-.358.312-.402.535 0 .223-.023.446-.067.669a.995.995 0 01-.268.468c-.09.134-.313.201-.671.201a5.91 5.91 0 01-1.743-.268c-.536-.178-1.05-.379-1.542-.602l-.201.87c.313.09.715.268 1.207.535.536.268 1.05.58 1.542.937.536.312.983.67 1.341 1.07.402.402.603.781.603 1.138 0 .535-.224.87-.67 1.004-.403.089-.805.133-1.207.133-1.341 0-2.682-.2-4.023-.602a13.953 13.953 0 00-4.022-.602c-2.413 0-4.737.335-6.972 1.004-2.235.669-4.201 1.65-5.9 2.944a14.245 14.245 0 00-4.089 4.683c-1.028 1.83-1.542 3.948-1.542 6.357 0 2.453.604 4.773 1.81 6.959a21.746 21.746 0 004.626 5.687 23.364 23.364 0 006.436 3.814c2.369.937 4.715 1.405 7.039 1.405h.804c.403-.045.827-.067 1.274-.067.626 0 1.185.067 1.676.2.536.09.827.313.872.67-.626.089-1.274.2-1.944.334a14.76 14.76 0 01-1.945.134c-1.832 0-3.731-.245-5.698-.736 2.101.625 4.201.937 6.302.937.491 0 1.005-.022 1.542-.067.536-.045 1.05-.111 1.542-.2l.67.802c.402-.089.737-.134 1.006-.134.268-.044.737-.2 1.407-.468 0-1.427.067-2.81.201-4.148.135-1.383.202-2.788.202-4.216v-.937c0-.802-.067-1.65-.202-2.542-.089-.937-.402-1.673-.938-2.208l-.402.2c.447 1.027.737 2.12.871 3.28.134 1.159.201 2.319.201 3.479 0 1.918-.134 3.769-.402 5.553.134-1.472.201-2.944.201-4.416 0-.312-.045-.914-.134-1.806a30 30 0 00-.268-2.81 17.88 17.88 0 00-.536-2.61c-.179-.759-.38-1.138-.604-1.138-1.072 0-2.167-.089-3.285-.267a19.574 19.574 0 00-3.218-.268h-.335l-1.81.067c0-.134-.022-.29-.067-.468v-.536c0-.357.067-.691.201-1.003.134-.313.447-.469.939-.469l.804.067v-.803c-.625-.178-1.273-.468-1.944-.87-.626-.401-.938-.98-.938-1.74 0-.535.29-.958.871-1.27.581-.313 1.252-.536 2.011-.67.805-.178 1.587-.29 2.347-.334.759-.045 1.34-.067 1.743-.067 4.067 0 7.128 1.048 9.184 3.145 2.101 2.096 3.151 5.174 3.151 9.233a48.77 48.77 0 01-.67 8.03 47.467 47.467 0 00-.671 7.962c0 .58-.089 1.115-.268 1.606-.134.49-.559.736-1.274.736l.335-4.818-.603 4.617h-.402a1.266 1.266 0 01-.402.067c-.09 0-.157-.023-.202-.067h-.201v1.004c-.357.669-.893 1.003-1.609 1.003zm-3.016-5.286c-.805.045-1.609.134-2.414.268-.76.134-1.542.2-2.346.2-3.173 0-6.324-.512-9.453-1.538-3.128-1.07-5.988-2.543-8.58-4.416a29.231 29.231 0 01-6.57-6.892 21.34 21.34 0 01-2.883-6.223c.626 2.543 1.676 4.84 3.15 6.892a26.752 26.752 0 007.04 6.959c2.77 1.873 5.832 3.278 9.184 4.215a37.45 37.45 0 0010.123 1.405h.402a5.87 5.87 0 001.274-.134c.402-.089.76-.334 1.073-.736zM93.187 32.317v.134c0 .446.29.982.871 1.606a20.66 20.66 0 002.012 1.874c.76.58 1.497 1.137 2.212 1.672.76.491 1.318.826 1.676 1.004a74.1 74.1 0 00-1.609-1.204 52.557 52.557 0 01-1.944-1.606c-.67-.58-1.319-1.16-1.944-1.74-.581-.624-1.006-1.204-1.274-1.74zm27.218 10.17c.089-1.025.223-2.007.402-2.943.179-.981.268-1.985.268-3.011 0-.625-.022-1.227-.067-1.807a13.488 13.488 0 00-.268-1.806c0 1.606-.022 3.211-.067 4.817a41.861 41.861 0 01-.402 4.75h.134zm5.698-7.895c-.536 1.339-.782 2.655-.737 3.948a19.735 19.735 0 01-.201 3.613c.223-1.204.402-2.43.536-3.68.179-1.293.313-2.587.402-3.88zm-40.357-8.497zm-.067-.736c.044.267.067.513.067.736a3.752 3.752 0 01-.067-.736zM149.045 53.729c1.966.624 3.977.937 6.033.937 2.324 0 4.492-.357 6.503-1.071a20.345 20.345 0 005.497-2.944 22.35 22.35 0 004.358-4.35 22.949 22.949 0 002.346-3.746 32.88 32.88 0 01-2.011 3.68 18.251 18.251 0 01-4.022 4.483c-1.565 1.293-3.375 2.32-5.431 3.078-2.055.803-4.379 1.204-6.972 1.204h-.871c-3.71 0-6.928-.825-9.654-2.476-2.726-1.65-4.983-3.747-6.771-6.29-1.787-2.586-3.128-5.464-4.022-8.63-.849-3.168-1.274-6.29-1.274-9.368 0-1.294.067-2.654.201-4.082.134-1.471.425-2.944.872-4.416a20.102 20.102 0 011.877-4.282c.849-1.427 1.989-2.72 3.419-3.88a18.212 18.212 0 013.754-2.342c1.386-.67 2.749-1.049 4.089-1.138-.134.09-.201.179-.201.268 0 .178.09.379.269.602.223.178.335.38.335.602v.134c0 .178-.112.312-.335.401-.179.09-.492.223-.939.402-.447.134-1.028.357-1.743.669-.715.312-1.564.78-2.548 1.405.269.268.403.468.403.602.849-.446 1.631-.758 2.346-.936a8.333 8.333 0 012.011-.268c1.296 0 2.235.223 2.816.669.581.446.871.78.871 1.004 0 .357-.29.646-.871.87a48.78 48.78 0 00-1.944.87c-.715.311-1.475.758-2.28 1.337-.804.536-1.43 1.339-1.877 2.41-.715 1.07-1.273 2.408-1.676 4.014a22.44 22.44 0 00-.536 4.884c0 2.81.335 5.375 1.006 7.695.67 2.32 1.609 4.327 2.815 6.022 1.252 1.695 2.749 3.01 4.492 3.947 1.788.937 3.799 1.406 6.033 1.406 2.146 0 4.067-.536 5.766-1.606 1.743-1.07 3.218-2.52 4.424-4.35 1.207-1.873 2.123-4.014 2.749-6.423.626-2.453.939-5.063.939-7.828 0-1.338-.09-2.654-.269-3.948a13.649 13.649 0 00-.938-3.814 12.448 12.448 0 00-1.944-3.412c-.805-1.07-1.877-2.052-3.218-2.944-1.699-.892-3.084-1.517-4.157-1.874-1.072-.401-1.609-.78-1.609-1.137 0-.134.09-.29.269-.469 2.234.491 4.245 1.294 6.033 2.41a13.705 13.705 0 014.157 4.014c-1.207-1.829-2.57-3.234-4.09-4.216-1.653-1.115-3.62-1.984-5.899-2.609.223-.223.335-.424.335-.602 0-.179-.335-.335-1.006-.469-.625-.133-1.318-.29-2.078-.468a15.046 15.046 0 01-2.145-.669c-.626-.268-.939-.602-.939-1.004 0-.49.403-.847 1.207-1.07.804-.223 1.788-.49 2.95-.803.313 0 .603.044.871.134.313.089.581.178.805.267a21.955 21.955 0 016.234 2.141 20.316 20.316 0 015.363 3.948c1.609 1.606 2.95 3.524 4.023 5.754 1.072 2.186 1.765 4.662 2.078 7.427-.223-2.631-.827-5.018-1.81-7.159a20.36 20.36 0 00-3.754-5.821 20.995 20.995 0 00-5.363-4.282 28.22 28.22 0 00-6.57-2.677c2.056 0 4.089.424 6.1 1.272 2.056.802 3.933 2.007 5.632 3.613 1.698 1.56 3.173 3.501 4.424 5.82 1.252 2.32 2.145 4.975 2.682 7.963-.09 0-.224.045-.402.134a1.839 1.839 0 01-.403.067c.403 2.275.604 4.483.604 6.624 0 3.122-.492 6.178-1.475 9.167-.939 2.988-2.324 5.665-4.157 8.029-1.787 2.32-4 4.193-6.636 5.62-2.637 1.472-5.654 2.208-9.051 2.208-2.011 0-3.977-.29-5.899-.87a24.093 24.093 0 01-5.363-2.341c.089.089.134.178.134.267 0 .09-.112.134-.335.134a20.937 20.937 0 005.363 2.476zm26.413-23.954a51.982 51.982 0 01-1.005 5.42 30.71 30.71 0 01-1.743 5.42 23.87 23.87 0 01-2.749 5.018 18.429 18.429 0 01-3.955 3.947 19.174 19.174 0 004.022-3.814 22.787 22.787 0 002.883-4.95 26.715 26.715 0 001.81-5.621c.447-2.008.715-3.993.804-5.955a1.728 1.728 0 00-.067.535zm-5.363 3.88a24.681 24.681 0 01-1.609 4.952 16.71 16.71 0 01-2.749 4.215 14.802 14.802 0 002.816-4.148 20.507 20.507 0 001.542-5.018zM177 27.769c0 .758-.045 1.539-.134 2.341a46.005 46.005 0 01-.201 2.342c0-.758.044-1.605.134-2.542.089-.982.134-2.052.134-3.212v-1.204c.045.357.067.736.067 1.137v1.138zm-6.905 5.888c.223-.982.38-1.963.469-2.944.134-1.026.201-2.052.201-3.078 0-1.115-.067-2.253-.201-3.413.045.491.067.96.067 1.405.045.447.067.915.067 1.406 0 2.275-.201 4.483-.603 6.624zm6.57-.803l-.604 3.278-.67 2.41a23.132 23.132 0 01-.804 2.274 36.427 36.427 0 001.206-4.148c.358-1.383.648-2.744.872-4.082v.268zm-32.916 18.534c0-.045-.023-.09-.067-.134 0 .045.022.09.067.134zm30.838-10.572zm-.738 1.606zm-5.832-26.162a1.064 1.064 0 00-.201-.268c.044.09.111.179.201.268zm6.368 25.024z" fill="#fff"/></svg>