<svg width="395" height="395" fill="none" xmlns="http://www.w3.org/2000/svg"><path fill-rule="evenodd" clip-rule="evenodd" d="M395 197.5C395 306.576 306.576 395 197.5 395S0 306.576 0 197.5 88.424 0 197.5 0 395 88.424 395 197.5z" fill="#6DFFDC"/><path fill-rule="evenodd" clip-rule="evenodd" d="M149.127 303.206c5.304-13.672 13.479-24.257 23.425-30.654-9.946-6.395-18.121-16.981-23.425-30.653-5.305 13.672-13.479 24.258-23.426 30.653 9.947 6.397 18.121 16.982 23.426 30.654zM199 265.01v15.087h-3.762c-23.467 0-38.962 30.62-38.962 62.127v4.882h-15.054v-4.882c0-31.507-15.496-62.127-38.962-62.127h-3.762V265.01h3.762c23.466 0 38.962-30.621 38.962-62.127V198h15.054v4.883c0 31.506 15.495 62.127 38.962 62.127H199zM81.23 341.05c2.693-5.564 6.51-10.017 11.222-13.133-4.712-3.34-8.529-7.793-11.448-13.357-2.692 5.564-6.508 10.017-11.221 13.133 4.713 3.34 8.53 7.793 11.446 13.357zm-18.136-90.068c2.694-5.567 6.51-10.019 11.223-13.135-4.713-3.339-8.528-7.79-11.448-13.356-2.694 5.566-6.509 10.017-11.222 13.135 4.713 3.337 8.528 7.789 11.447 13.356zm49.006 69.871v13.902h-2.426c-12.57 0-21.39 12.799-21.39 27.583V363H73.952v-.662c0-14.784-8.82-27.583-21.39-27.583h-2.425v-13.902h2.425c12.57 0 21.39-12.797 21.39-27.581v-.662h14.334v.662c0 14.784 8.82 27.581 21.389 27.581h2.426zm-18.136-90.067v13.901h-2.426c-12.57 0-21.39 12.799-21.39 27.583v.661H55.814v-.661c0-14.784-8.818-27.583-21.388-27.583H32v-13.901h2.426c12.57 0 21.388-12.799 21.388-27.581v-.664h14.334v.664c0 14.782 8.82 27.581 21.39 27.581h2.426z" fill="#1F1F24"/></svg>