<svg width="37" height="98" fill="none" xmlns="http://www.w3.org/2000/svg"><path fill-rule="evenodd" clip-rule="evenodd" d="M28.512 96.006h-11.31c-.108-1.658.366-2.738 1.524-3.514h9.786v3.514zM7.078 92.492h9.541c-.649.935-.943 2.097-.873 3.514H5.329c-.063-1.557.5-2.688 1.748-3.514zm22.435-28.405c-.399-.046-.76.261-.802.685-.665 6.606-.902 18.896-.273 26.18H18.052c-.7-4.714-1.315-11.18-.36-20.002.046-.423-.242-.804-.644-.853-.402-.05-.762.255-.808.677-.958 8.859-.367 15.388.334 20.178H7.525c-1.173-11.066-1.55-18.955-1.154-24.099.033-.424-.267-.796-.67-.83-.4-.04-.753.281-.786.705-.406 5.278-.018 13.338 1.183 24.618-1.735 1.259-2.487 3.158-2.155 5.542.053.378.36.658.723.658h24.576c.404 0 .73-.344.73-.77v-5.054c0-.015-.007-.028-.008-.042 0-.014.006-.027.004-.04-.718-7.046-.49-19.91.193-26.706.042-.423-.248-.802-.65-.847zM10.68 14.318a3.568 3.568 0 011.853.483.698.698 0 00.35.095.725.725 0 00.642-.4.793.793 0 00-.29-1.046 5.005 5.005 0 00-2.579-.672c-.404.008-.725.358-.718.784a.76.76 0 00.743.756zM11.165 15.985c-.53 0-.96.454-.96 1.014s.43 1.013.96 1.013.961-.454.961-1.013c0-.56-.43-1.014-.961-1.014z" fill="#000"/><path fill-rule="evenodd" clip-rule="evenodd" d="M33.38 57.723c-1.09.284-2.235.377-3.356.294-.423-1.77-.257-3.622-.077-5.582.085-.944.176-1.921.193-2.892.008-.45.002-.935-.096-1.431-.09-.463-.25-.877-.405-1.277l-.069-.179c-1.087-2.856-1.535-5.988-1.969-9.017-.06-.42-.434-.714-.832-.646-.399.063-.673.455-.612.876.446 3.116.907 6.338 2.058 9.36l.07.186c.136.352.265.684.33 1.01.067.347.07.729.064 1.09-.016.91-.103 1.857-.187 2.772-.187 2.048-.381 4.165.162 6.306.16.632.36 1.416.292 1.99l-.012.098c-.154 1.307-.24 2.027-3.267 2.785-6.826 1.602-13.789 1.212-20.179-1.099-.02-2.218.162-3.972.356-5.814.192-1.81.39-3.682.43-6.195.108-6.75.242-9.24.336-10.14.051-.49.116-1.024.192-1.57.058-.42-.217-.812-.616-.873-.403-.066-.77.229-.83.65a48.312 48.312 0 00-.197 1.626c-.142 1.355-.258 4.814-.346 10.28-.039 2.44-.233 4.276-.42 6.05-.085.8-.167 1.583-.232 2.393-.709-.148-1.539-.56-1.984-1.133-.35-.45-.268-.78-.24-.888.45-1.826.695-13.585.722-14.938-.009-5.2 3.194-11.337 6.607-13.224.031.44.16.868.363 1.223.426.744 3.251 4.144 4.816 5.168a.702.702 0 00.687.047c2.828-1.353 4.716-3.26 6.54-5.105a62.288 62.288 0 011.647-1.616.712.712 0 00.337.09c2.483-.074 5.892 1.004 7.509 3.527 1.606 2.507 2.374 5.526 3.11 8.45.642 6.022.341 11.856-.895 17.348zM3.22 63.387c-.968-.447-1.33-1.04-1.25-2.05.042-.554.17-1.101.326-1.662a5.34 5.34 0 001.765.638 37.207 37.207 0 00-.027 2.645.782.782 0 00.18.473c-.33.097-.688.097-.994-.044zm5.63-42.46c-.252-.61-.875-.546-1.424-.488-.173.019-.482.05-.695.047.078-.523.293-1.013.536-1.568.518-1.185 1.163-2.66.834-5.138-.007-.264.196-3.196 1.045-5.603.33-.057.645-.145.938-.23l.3-.086a9.798 9.798 0 016.216.356c-.105 1.002.331 2.122 1.26 3.18.146.165.297.328.449.491.583.627 1.134 1.22 1.293 1.923.07.307.067.66.066 1.033-.001.172-.002.343.003.514.02.666.525 1.502 1.245 1.683.073.018.172.035.29.035.387 0 .971-.186 1.454-1.12.008-.012.007-.028.012-.04.012-.022.03-.035.04-.058.121-.29.285-.557.488-.79l.011.03c.196.574.362 1.123.227 1.52a.747.747 0 01-.476.466c-.388.115-.615.54-.506.95.09.34.384.562.703.562a.681.681 0 00.198-.029c.664-.196 1.222-.744 1.456-1.429.324-.952-.009-1.921-.229-2.564-.09-.264-.367-1.07-1.136-1.188-.43-.064-.845.117-1.233.539-.342.371-.615.8-.819 1.27-.005.008-.013.014-.017.023-.068.13-.124.211-.166.261a.523.523 0 01-.082-.169 12.395 12.395 0 01-.003-.456c.003-.45.005-.914-.105-1.4-.253-1.12-1.007-1.93-1.671-2.645a21.276 21.276 0 01-.42-.46c-.28-.318-1.165-1.422-.8-2.27a.808.808 0 00.018-.59.758.758 0 00-.384-.43 11.19 11.19 0 00-7.75-.688l-.319.09c-.23.067-.455.132-.672.177-.016-.01-.027-.025-.045-.034a.686.686 0 00-.676.068.912.912 0 01-.528-.283c.296-.36.57-.722.83-1.075.665-.91 1.24-1.697 2.16-2.217 2.443-1.38 5.69-1.792 8.905-1.129 2.82.582 6.105 1.603 6.484 4.37a.765.765 0 00.44.6c.452.2.99 1.131 1.172 2.758.324 2.9-.54 6.741-3.091 9.389a.727.727 0 00-.289-.29c-.363-.187-.8-.026-.976.357a17.379 17.379 0 00-1.348 4.387.792.792 0 00.048.404.765.765 0 00-.079.239 7.371 7.371 0 00.244 3.034 63.069 63.069 0 00-1.615 1.596c-1.653 1.67-3.36 3.396-5.763 4.63-1.384-1.09-3.693-3.855-4.02-4.423-.221-.388-.216-.903.012-1.104.025-.023.039-.055.06-.08.027-.031.06-.056.082-.091.235.21.478.4.737.553.419.247 1.075.353 1.818.353 1.72 0 3.9-.571 4.616-1.284a.8.8 0 00.03-1.088.704.704 0 00-1.033-.032c-.58.578-3.926 1.174-4.719.707-.757-.446-1.41-1.335-1.994-2.404.589-.001 1.243-.185 1.756-.923a.798.798 0 00-.157-1.076.706.706 0 00-1.021.165c-.222.318-.468.359-1.252.207-.04-.007-.078.003-.118.002a69.904 69.904 0 01-.798-1.883l-.047-.113zm26.872 19.225c-.002-.02-.013-.035-.017-.054-.004-.02.002-.039-.003-.058-.736-2.924-1.572-6.237-3.328-8.977-1.915-2.988-5.71-4.257-8.66-4.202a5.738 5.738 0 01-.235-2.472.79.79 0 00-.05-.375.815.815 0 00.072-.208 15.87 15.87 0 01.605-2.395.705.705 0 00.394-.145c3.836-2.97 5.133-8.042 4.717-11.75-.203-1.816-.808-3.161-1.683-3.783C26.82 2.304 23.13 1.11 19.953.457c-3.541-.731-7.14-.263-9.875 1.282-1.198.676-1.926 1.672-2.629 2.635-.324.443-.658.9-1.038 1.326-.003.004-.004.009-.007.011-.04.048-.066.104-.094.16-.017.034-.042.063-.054.097-.012.037-.011.078-.017.116-.011.06-.026.12-.023.181 0 .005-.003.01-.002.014.056.893.698 1.518 1.418 1.793-.81 2.552-1.034 5.478-.982 5.87.275 2.081-.225 3.225-.709 4.33-.317.725-.646 1.475-.696 2.394-.02.372.1.711.34.954.504.51 1.327.422 1.989.352l.11-.011c.674 1.633 1.418 3.36 2.374 4.675-4.436 1.155-8.87 8.692-8.86 15.165-.103 5.17-.367 13.315-.676 14.564-.193.783-.012 1.561.525 2.252.007.008.015.015.02.023-.243.82-.482 1.666-.553 2.57-.132 1.671.582 2.878 2.122 3.588.368.17.763.251 1.158.251.775 0 1.543-.321 2.1-.909a36.153 36.153 0 0011.423 1.843c2.882 0 5.79-.338 8.672-1.014l.003-.001.007-.001c3.741-.936 4.165-2.23 4.385-4.095l.011-.098c.047-.391.017-.798-.04-1.203.14.005.278.025.418.025 1.155 0 2.316-.171 3.418-.509a.75.75 0 00.505-.554c1.367-5.814 1.713-11.998 1.027-18.381z" fill="#000"/></svg>